<svg xmlns="http://www.w3.org/2000/svg" xmlns:xlink="http://www.w3.org/1999/xlink" xmlns:svgjs="http://svgjs.com/svgjs" version="1.1" width="512" height="512" style="enable-background:new 0 0 512 512" xml:space="preserve"><rect id="backgroundrect" width="100%" height="100%" x="0" y="0" fill="none" stroke="none"/><g class="currentLayer" style=""><title>Layer 1</title><g id="svg_1" class="selected" fill-opacity="1" fill="#da3d2c"><path xmlns="http://www.w3.org/2000/svg" d="m176 400h160v96h-160zm0 0" fill="#da3d2c" data-original="#d7e1f2" style="" class="" id="svg_2"/><path xmlns="http://www.w3.org/2000/svg" d="m512 368h-512v-272c0-17.679688 14.320312-32 32-32h448c17.679688 0 32 14.320312 32 32zm0 0" fill="#da3d2c" data-original="#80deea" style="" class="" id="svg_3"/><path xmlns="http://www.w3.org/2000/svg" d="m512 192h-160v-160c0-17.679688 14.320312-32 32-32h96c17.679688 0 32 14.320312 32 32zm0 0" fill="#da3d2c" data-original="#48c8ef" style="" class="" id="svg_4"/><path xmlns="http://www.w3.org/2000/svg" d="m352 176v48c0 17.679688 14.320312 32 32 32h96c17.679688 0 32-14.320312 32-32v-48zm0 0" fill="#da3d2c" data-original="#e4edfb" style="" class="" id="svg_5"/><g xmlns="http://www.w3.org/2000/svg" fill="#da3d2c" id="svg_6"><path d="m310.625 208h-150.625c-8.832031 0-16-7.167969-16-16s7.167969-16 16-16h73.375l-20.6875-20.6875 22.625-22.625zm0 0" fill="#da3d2c" data-original="#ffffff" style="" class="" id="svg_7"/><path d="m148.6875 315.3125-75.3125-75.3125h150.625c8.832031 0 16 7.167969 16 16s-7.167969 16-16 16h-73.375l20.6875 20.6875zm0 0" fill="#da3d2c" data-original="#ffffff" style="" class="" id="svg_8"/><path d="m80 176h32v32h-32zm0 0" fill="#da3d2c" data-original="#ffffff" style="" class="" id="svg_9"/><path d="m272 240h32v32h-32zm0 0" fill="#da3d2c" data-original="#ffffff" style="" class="" id="svg_10"/></g><path xmlns="http://www.w3.org/2000/svg" d="m368 512h-224c-8.832031 0-16-7.167969-16-16s7.167969-16 16-16h224c8.832031 0 16 7.167969 16 16s-7.167969 16-16 16zm0 0" fill="#da3d2c" data-original="#e4edfb" style="" class="" id="svg_11"/><path xmlns="http://www.w3.org/2000/svg" d="m480 432h-448c-17.679688 0-32-14.320312-32-32v-48h512v48c0 17.679688-14.320312 32-32 32zm0 0" fill="#da3d2c" data-original="#e4edfb" style="" class="" id="svg_12"/></g></g></svg>