<?xml version="1.0"?>
<svg xmlns="http://www.w3.org/2000/svg" xmlns:xlink="http://www.w3.org/1999/xlink" xmlns:svgjs="http://svgjs.com/svgjs" version="1.1" width="512" height="512" x="0" y="0" viewBox="0 0 96 96" style="enable-background:new 0 0 512 512" xml:space="preserve" class=""><g transform="matrix(1,-2.4492935982947064e-16,2.4492935982947064e-16,1,0,1.4210854715202004e-14)"><g xmlns="http://www.w3.org/2000/svg" id="_09-timer" data-name="09-timer"><path d="m77.08 28.577 5.748-5.748-5.656-5.658-6.149 6.149a39.747 39.747 0 0 0 -19.023-7.12v-8.2h8v-8h-24v8h8v8.2a39.747 39.747 0 0 0 -19.023 7.12l-6.149-6.149-5.656 5.658 5.748 5.748a40 40 0 1 0 58.16 0zm-29.08 59.423a32 32 0 1 1 32-32 32.036 32.036 0 0 1 -32 32z" fill="#d92b2b" data-original="#000000" style="" class=""/><path d="m48 32v24h-24a24 24 0 1 0 24-24z" fill="#d92b2b" data-original="#000000" style="" class=""/></g></g></svg>
